<?xml version="1.0" standalone="no"?><!DOCTYPE svg PUBLIC "-//W3C//DTD SVG 1.1//EN" "http://www.w3.org/Graphics/SVG/1.1/DTD/svg11.dtd">
<svg width="200px" height="200.00px" viewBox="0 0 1024 1024" version="1.1"
  xmlns="http://www.w3.org/2000/svg">
  <path d="M354.8346875 134.856875a194.056875 194.056875 0 0 1 160.0453125 84.0684375 193.92 193.92 0 0 1 159.976875-84.0684375h219.9778125a34.2853125 34.2853125 0 0 1 34.2853125 34.28625v579.976875a34.2853125 34.2853125 0 0 1-34.2853125 34.2853125H634.88c-47.3146875 0-85.7146875 38.4-85.7146875 85.7146875 0 20.3653125-13.576875 31.6115625-28.59375 33.8746875l-5.6915625 0.410625c-17.143125 0-34.2853125-11.3821875-34.2853125-34.2853125l-0.48-8.709375a85.7146875 85.7146875 0 0 0-85.2346875-77.0053125H134.856875a34.2853125 34.2853125 0 0 1-34.2853125-34.2853125V169.143125a34.2853125 34.2853125 0 0 1 34.2853125-34.28625z m0 68.5715625H169.143125v511.40625h225.736875c28.3884375 0 54.99375 7.68 77.8284375 21.12l7.816875 4.8684375v-411.703125l-0.3421875-10.2853125a125.76 125.76 0 0 0-114.99375-114.9946875l-10.28625-0.4115625z m505.71375 0h-185.690625c-69.463125 0-125.6925 56.2284375-125.6925 125.6915625v411.703125l7.8178125-4.8684375c20.0221875-11.72625 42.856875-19.063125 67.336875-20.709375l10.56-0.410625h225.6v-511.40625z" />
</svg>