<?xml version="1.0" standalone="no"?><!DOCTYPE svg PUBLIC "-//W3C//DTD SVG 1.1//EN" "http://www.w3.org/Graphics/SVG/1.1/DTD/svg11.dtd">
<svg width="200px" height="200.00px" viewBox="0 0 1024 1024" version="1.1"
  xmlns="http://www.w3.org/2000/svg">
  <path d="M652.288 102.4c22.118 0 43.52 8.192 59.904 23.04l133.99 120.525a89.473 89.473 0 0 1 29.645 66.56v372.838a89.6 89.6 0 0 1-89.6 89.6H677.222v59.392a89.6 89.6 0 0 1-89.6 89.6H243.2a89.6 89.6 0 0 1-89.6-89.6V340.89c0-49.46 40.14-89.6 89.6-89.6h59.392V192c0-49.46 40.09-89.6 89.6-89.6zM302.592 328.192H243.2a12.8 12.8 0 0 0-12.8 12.8v493.312c0 7.117 5.734 12.8 12.8 12.8h344.422a12.8 12.8 0 0 0 12.8-12.8v-59.34h-208.23a89.6 89.6 0 0 1-89.6-89.6V328.191zM652.288 179.2H392.192a12.8 12.8 0 0 0-12.8 12.8v493.363c0 7.066 5.683 12.8 12.8 12.8h394.035a12.8 12.8 0 0 0 12.8-12.8V312.525a12.8 12.8 0 0 0-4.25-9.472L660.839 182.477a12.8 12.8 0 0 0-8.55-3.277z" />
</svg>