<?xml version="1.0" standalone="no"?><!DOCTYPE svg PUBLIC "-//W3C//DTD SVG 1.1//EN" "http://www.w3.org/Graphics/SVG/1.1/DTD/svg11.dtd">
<svg t="1725016017601" class="icon" viewBox="0 0 1024 1024" version="1.1"
  xmlns="http://www.w3.org/2000/svg"
  xmlns:xlink="http://www.w3.org/1999/xlink" width="200" height="200">
  <path d="M725.333333 213.333333h128a42.666667 42.666667 0 0 1 42.666667 42.666667v597.333333a42.666667 42.666667 0 0 1-42.666667 42.666667H170.666667a42.666667 42.666667 0 0 1-42.666667-42.666667V256a42.666667 42.666667 0 0 1 42.666667-42.666667h128V128h85.333333v85.333333h256V128h85.333333v85.333333z m-85.333333 85.333334H384v85.333333H298.666667V298.666667H213.333333v128h597.333334V298.666667h-85.333334v85.333333h-85.333333V298.666667z m170.666667 213.333333H213.333333v298.666667h597.333334v-298.666667zM256 640h85.333333v85.333333H256v-85.333333z m170.666667 0h341.333333v85.333333h-341.333333v-85.333333z"></path>
</svg>