<?xml version="1.0" standalone="no"?><!DOCTYPE svg PUBLIC "-//W3C//DTD SVG 1.1//EN" "http://www.w3.org/Graphics/SVG/1.1/DTD/svg11.dtd">
<svg t="1725016298432" viewBox="0 0 1024 1024" version="1.1"
  xmlns="http://www.w3.org/2000/svg"
  xmlns:xlink="http://www.w3.org/1999/xlink" width="200" height="200">
  <path d="M725.333 256h213.334v85.333h-85.334V896a42.667 42.667 0 0 1-42.666 42.667H213.333A42.667 42.667 0 0 1 170.667 896V341.333H85.333V256h213.334V128a42.667 42.667 0 0 1 42.666-42.667h341.334A42.667 42.667 0 0 1 725.333 128v128zM768 341.333H256v512h512v-512z m-384 128h85.333v256H384v-256z m170.667 0H640v256h-85.333v-256zM384 170.667V256h256v-85.333H384z"></path>
</svg>