<?xml version="1.0" standalone="no"?><!DOCTYPE svg PUBLIC "-//W3C//DTD SVG 1.1//EN" "http://www.w3.org/Graphics/SVG/1.1/DTD/svg11.dtd"><svg t="1736751788827" class="icon" viewBox="0 0 1080 1024" version="1.1" xmlns="http://www.w3.org/2000/svg" p-id="6395" xmlns:xlink="http://www.w3.org/1999/xlink" width="210.9375" height="200"><path d="M699.98274739 553.64960938l290.20078125 169.25097656-123.89941406 35.44980468 88.54980469 153.34980469-72.15029297 41.69970703-88.54980469-153.34980468-92.65078125 89.55-1.49941406-335.95048829z m-83.29921875-291.64921875h83.30009766v83.3493164h208.35c23.00009766 0 41.64960938 18.65039063 41.64960937 41.65048828v166.64941407h-83.30009765V428.64980469H449.98313802v416.7h166.70039062v83.30009765H408.33352864a41.64960938 41.64960938 0 0 1-41.65048828-41.64960937V678.64941406h-83.3493164v-83.30009765h83.3493164V387.00019531c0-23.00097655 18.65039063-41.65048828 41.65048828-41.65048828h208.35v-83.3493164zM199.98352864 595.35019531v83.30009766H116.68343099v-83.30009766h83.30009765z m0-166.70039062V512H116.68343099v-83.35019531h83.30009765z m0-166.64941407v83.34931641H116.68343099v-83.3493164h83.30009765z m0-166.65029296v83.30009765H116.68343099V95.35009766h83.30009765z m166.69951172 0v83.30009765h-83.34931641V95.35009766h83.34931641z m166.65029297 0v83.30009765h-83.35019531V95.35009766H533.33333333z m166.64941406 0v83.30009765h-83.29921875V95.35009766h83.30009766z" p-id="6396"></path></svg>