<?xml version="1.0" standalone="no"?><!DOCTYPE svg PUBLIC "-//W3C//DTD SVG 1.1//EN" "http://www.w3.org/Graphics/SVG/1.1/DTD/svg11.dtd">
<svg t="1725358521528" class="icon" viewBox="0 0 1024 1024" version="1.1"
  xmlns="http://www.w3.org/2000/svg"
  xmlns:xlink="http://www.w3.org/1999/xlink" width="200" height="200">
  <path d="M512 128c230.059 0 421.461 165.547 461.61 384C933.505 730.453 742.06 896 512 896 281.941 896 90.539 730.453 50.39 512 90.495 293.547 281.94 128 512 128z m0 682.667c179.2 0 334.592-123.947 374.485-298.667a384.213 384.213 0 0 0-748.97 0A384.213 384.213 0 0 0 512 810.667zM512 704a192 192 0 1 1 0-384 192 192 0 0 1 0 384z m0-85.333a106.667 106.667 0 1 0 0-213.334 106.667 106.667 0 0 0 0 213.334z"></path>
</svg>