<?xml version="1.0" standalone="no"?><!DOCTYPE svg PUBLIC "-//W3C//DTD SVG 1.1//EN" "http://www.w3.org/Graphics/SVG/1.1/DTD/svg11.dtd">
<svg t="1725358528944" class="icon" viewBox="0 0 1024 1024" version="1.1"
  xmlns="http://www.w3.org/2000/svg"
  xmlns:xlink="http://www.w3.org/1999/xlink" width="200" height="200">
  <path d="M432.213 675.925l-33.621 125.44-82.39-22.101 33.58-125.397a468.821 468.821 0 0 1-138.113-79.872l-91.861 91.904-60.373-60.374 91.904-91.861a467.499 467.499 0 0 1-101.163-216.32l38.4-7.04A722.048 722.048 0 0 0 512 426.667c158.037 0 304.256-50.56 423.424-136.363l38.4 6.997a467.499 467.499 0 0 1-101.12 216.363l91.861 91.861-60.373 60.374-91.861-91.904a468.821 468.821 0 0 1-138.112 79.872l33.578 125.44-82.389 22.058-33.621-125.44a472.405 472.405 0 0 1-159.574 0z"></path>
</svg>