<?xml version="1.0" standalone="no"?><!DOCTYPE svg PUBLIC "-//W3C//DTD SVG 1.1//EN" "http://www.w3.org/Graphics/SVG/1.1/DTD/svg11.dtd">
<svg t="1725358518012" viewBox="0 0 1024 1024" version="1.1"
  xmlns="http://www.w3.org/2000/svg"
  xmlns:xlink="http://www.w3.org/1999/xlink" width="200" height="200">
  <path d="M50.39 512C90.495 293.547 281.94 128 512 128c230.059 0 421.461 165.547 461.61 384C933.505 730.453 742.06 896 512 896 281.941 896 90.539 730.453 50.39 512zM512 725.333a213.333 213.333 0 1 0 0-426.666 213.333 213.333 0 0 0 0 426.666zM512 640a128 128 0 1 1 0-256 128 128 0 0 1 0 256z"></path>
</svg>