<?xml version="1.0" standalone="no"?><!DOCTYPE svg PUBLIC "-//W3C//DTD SVG 1.1//EN" "http://www.w3.org/Graphics/SVG/1.1/DTD/svg11.dtd">
<svg t="1725017058822" viewBox="0 0 1024 1024" version="1.1"
  xmlns="http://www.w3.org/2000/svg"
  xmlns:xlink="http://www.w3.org/1999/xlink" width="200" height="200">
  <path d="M829.867 633.088a170.667 170.667 0 0 1 42.496 221.61l64.17 64.171-60.33 60.331-64.171-64.17a170.667 170.667 0 1 1 17.835-281.942z m-147.2-547.755L896 298.667V498.09a296.533 296.533 0 0 0-85.333-25.728v-131.03H640V170.667H213.333v682.666h268.374a296.96 296.96 0 0 0 41.173 85.334H170.368A42.667 42.667 0 0 1 128 896.34V127.66c0-23.382 19.072-42.326 42.624-42.326h512.043z m42.666 597.334a85.333 85.333 0 1 0 0 170.666 85.333 85.333 0 0 0 0-170.666z m-256-42.667v85.333H298.667V640h170.666z m85.334-170.667v85.334h-256v-85.334h256z m0-170.666V384h-256v-85.333h256z"></path>
</svg>