<?xml version="1.0" standalone="no"?><!DOCTYPE svg PUBLIC "-//W3C//DTD SVG 1.1//EN" "http://www.w3.org/Graphics/SVG/1.1/DTD/svg11.dtd">
<svg t="1725016751038" viewBox="0 0 1024 1024" version="1.1"
  xmlns="http://www.w3.org/2000/svg"
  xmlns:xlink="http://www.w3.org/1999/xlink" width="200" height="200">
  <path d="M618.667 85.333A149.333 149.333 0 0 1 753.62 298.71L896 298.667a42.667 42.667 0 0 1 42.667 42.666V512A42.667 42.667 0 0 1 896 554.667h-42.667V896a42.667 42.667 0 0 1-42.666 42.667H213.333A42.667 42.667 0 0 1 170.667 896V554.667H128A42.667 42.667 0 0 1 85.333 512V341.333A42.667 42.667 0 0 1 128 298.667l142.379 0.042a149.333 149.333 0 0 1 241.664-168.533 148.48 148.48 0 0 1 106.624-44.843zM768 554.667H256v298.666h512V554.667zM853.333 384H170.667v85.333h682.666V384z m-448-213.333a64 64 0 0 0-6.144 127.701l6.144 0.299h64v-64a64 64 0 0 0-57.856-63.702l-6.144-0.298z m213.334 0l-6.144 0.298a64 64 0 0 0-57.6 57.558l-0.256 6.144v64h64l6.144-0.299a64 64 0 0 0 0-127.403l-6.144-0.298z"></path>
</svg>