<?xml version="1.0" standalone="no"?><!DOCTYPE svg PUBLIC "-//W3C//DTD SVG 1.1//EN" "http://www.w3.org/Graphics/SVG/1.1/DTD/svg11.dtd">
<svg t="1725016754382" viewBox="0 0 1024 1024" version="1.1"
  xmlns="http://www.w3.org/2000/svg"
  xmlns:xlink="http://www.w3.org/1999/xlink" width="200" height="200">
  <path d="M853.333 554.667v298.666A42.667 42.667 0 0 1 810.667 896H213.333a42.667 42.667 0 0 1-42.666-42.667V554.667h682.666zM618.667 85.333A149.333 149.333 0 0 1 753.62 298.71L896 298.667a42.667 42.667 0 0 1 42.667 42.666v128A42.667 42.667 0 0 1 896 512H128a42.667 42.667 0 0 1-42.667-42.667v-128A42.667 42.667 0 0 1 128 298.667l142.379 0.042a149.333 149.333 0 0 1 241.664-168.533 148.48 148.48 0 0 1 106.624-44.843z m-213.334 85.334a64 64 0 0 0-6.144 127.701l6.144 0.299h64v-64a64 64 0 0 0-57.856-63.702l-6.144-0.298z m213.334 0l-6.144 0.298a64 64 0 0 0-57.6 57.558l-0.256 6.144v64h64l6.144-0.299a64 64 0 0 0 0-127.403l-6.144-0.298z"></path>
</svg>