<?xml version="1.0" standalone="no"?><!DOCTYPE svg PUBLIC "-//W3C//DTD SVG 1.1//EN" "http://www.w3.org/Graphics/SVG/1.1/DTD/svg11.dtd">
<svg t="1725016729336" class="icon" viewBox="0 0 1024 1024" version="1.1"
  xmlns="http://www.w3.org/2000/svg"
  xmlns:xlink="http://www.w3.org/1999/xlink" width="200" height="200">
  <path d="M512 938.667C276.352 938.667 85.333 747.648 85.333 512S276.352 85.333 512 85.333 938.667 276.352 938.667 512 747.648 938.667 512 938.667z m0-85.334a341.333 341.333 0 1 0 0-682.666 341.333 341.333 0 0 0 0 682.666z m42.667-298.666h128V640h-128v85.333h-85.334V640h-128v-85.333h128V512h-128v-85.333H451.67l-90.538-90.496 60.416-60.374L512 366.336l90.496-90.539 60.373 60.374-90.538 90.496h110.336V512h-128v42.667z"></path>
</svg>