<?xml version="1.0" standalone="no"?><!DOCTYPE svg PUBLIC "-//W3C//DTD SVG 1.1//EN" "http://www.w3.org/Graphics/SVG/1.1/DTD/svg11.dtd">
<svg t="1725016869166" class="icon" viewBox="0 0 1024 1024" version="1.1"
  xmlns="http://www.w3.org/2000/svg"
  xmlns:xlink="http://www.w3.org/1999/xlink" width="200" height="200">
  <path d="M597.333 128C618.667 128 640 149.376 640 170.795V341.46C640 362.752 618.752 384 597.547 384h-42.88v85.333h256.17c21.248 0 42.496 21.334 42.496 42.667v128h42.71c21.333 0 42.624 21.461 42.624 42.923v170.666c0 21.206-21.248 42.411-42.539 42.411H725.376c-21.333 0-42.71-21.205-42.71-42.453V682.795c0-21.462 21.42-42.795 42.838-42.795H768v-85.333H554.667V640h43.477C619.051 640 640 661.632 640 683.221v170.923C640 875.051 618.71 896 597.419 896H427.093C405.547 896 384 875.093 384 854.23V682.922C384 661.46 405.419 640 426.837 640h42.496v-85.333H256V640h43.05c21.12 0 42.283 21.504 42.283 43.008v170.667c0 21.162-21.248 42.325-42.496 42.325H128.171c-21.419 0-42.838-21.248-42.838-42.453V682.539c0-21.291 21.504-42.539 42.966-42.539h42.368V512.128c0-21.461 21.376-42.795 42.794-42.795h255.872V384h-42.325C405.504 384 384 362.752 384 341.504V170.837C384 149.42 405.333 128 426.71 128h170.666z m256 597.333H768v85.334h85.333v-85.334z m-298.666 0h-85.334v85.334h85.334v-85.334z m-298.667 0h-85.333v85.334H256v-85.334z m298.667-512h-85.334v85.334h85.334v-85.334z"></path>
</svg>