<?xml version="1.0" standalone="no"?><!DOCTYPE svg PUBLIC "-//W3C//DTD SVG 1.1//EN" "http://www.w3.org/Graphics/SVG/1.1/DTD/svg11.dtd">
<svg width="200px" height="200.00px" viewBox="0 0 1024 1024" version="1.1"
  xmlns="http://www.w3.org/2000/svg">
  <path d="M810.667 128c21.973 0 40.106 18.73 42.41 42.752l0.256 5.248 0.043 218.88a297.301 297.301 0 0 0-170.71-53.547 297.685 297.685 0 0 0-208.98 85.334H320a21.333 21.333 0 0 0-20.992 17.493l-0.341 3.84v42.667a21.333 21.333 0 0 0 17.493 20.992L320 512h92.757a296.533 296.533 0 0 0-25.728 85.333H320a21.333 21.333 0 0 0-20.992 17.494l-0.341 3.84v42.666a21.333 21.333 0 0 0 17.493 20.992l3.84 0.342h67.03a298.795 298.795 0 0 0 141.78 213.376L213.334 896c-21.973 0-40.106-18.73-42.41-42.752l-0.256-5.248V176c0-24.747 16.64-45.099 38.016-47.701l4.65-0.299h597.334z m-128 256a256 256 0 1 1 0 512 256 256 0 0 1 0-512z m0 85.333a170.667 170.667 0 1 0 0 341.334 170.667 170.667 0 0 0 0-341.334zM725.333 512v110.293l72.832 72.875-60.33 60.33L640 657.665V512h85.333zM704 256H320a21.333 21.333 0 0 0-20.992 17.493l-0.341 3.84V320a21.333 21.333 0 0 0 17.493 20.992l3.84 0.341h384a21.333 21.333 0 0 0 20.992-17.493l0.341-3.84v-42.667a21.333 21.333 0 0 0-17.493-20.992L704 256z" />
</svg>