<?xml version="1.0" standalone="no"?><!DOCTYPE svg PUBLIC "-//W3C//DTD SVG 1.1//EN" "http://www.w3.org/Graphics/SVG/1.1/DTD/svg11.dtd">
<svg t="1725015818581" class="icon" viewBox="0 0 1024 1024" version="1.1"
  xmlns="http://www.w3.org/2000/svg"
  xmlns:xlink="http://www.w3.org/1999/xlink" width="200" height="200">
  <path d="M161.28 696a13.824 13.824 0 0 1 12.032-20h68.064a16 16 0 0 1 14.144 8.544l0.16 0.32 5.6 11.136h0.032a311.744 311.744 0 0 0 262.976 144c172.288 0 312-139.68 312-312s-139.712-312-312-312a311.808 311.808 0 0 0-266.4 149.504l83.904 48.448a16 16 0 0 1-1.664 28.576l-196.544 84.288a16 16 0 0 1-22.208-12.8l-25.28-212.352a16 16 0 0 1 23.904-15.776l61.632 35.584A399.776 399.776 0 0 1 524.288 128c220.896 0 400 179.072 400 400S745.184 928 524.288 928c-160.928 0-299.648-95.04-363.136-232h0.128z" fill="#000000" fill-opacity=".45"></path>
</svg>