<?xml version="1.0" standalone="no"?><!DOCTYPE svg PUBLIC "-//W3C//DTD SVG 1.1//EN" "http://www.w3.org/Graphics/SVG/1.1/DTD/svg11.dtd">
<svg t="1725015725707" viewBox="0 0 1024 1024" version="1.1"
  xmlns="http://www.w3.org/2000/svg"
  xmlns:xlink="http://www.w3.org/1999/xlink" width="200" height="200">
  <path d="M233.088 189.141A425.003 425.003 0 0 1 512 85.333c235.648 0 426.667 191.019 426.667 426.667 0 91.136-28.587 175.616-77.227 244.907L725.333 512h128a341.333 341.333 0 0 0-577.706-246.272l-42.539-76.587zM790.912 834.86A425.003 425.003 0 0 1 512 938.667C276.352 938.667 85.333 747.648 85.333 512c0-91.136 28.587-175.616 77.227-244.907L298.667 512h-128a341.333 341.333 0 0 0 577.706 246.272l42.539 76.587z"></path>
</svg>