<?xml version="1.0" standalone="no"?><!DOCTYPE svg PUBLIC "-//W3C//DTD SVG 1.1//EN" "http://www.w3.org/Graphics/SVG/1.1/DTD/svg11.dtd">
<svg t="1725015834930" class="icon" viewBox="0 0 1024 1024" version="1.1"
  xmlns="http://www.w3.org/2000/svg"
  xmlns:xlink="http://www.w3.org/1999/xlink" width="200" height="200">
  <path d="M860.728 680a13.82 13.82 0 0 0 1.459-6.18c0-7.528-6.02-13.65-13.507-13.817l-0.313-0.003h-67.75a16 16 0 0 0-14.15 8.528l-0.162 0.317L760.728 680l-0.05 0.003C705.235 766.6 608.184 824 497.728 824c-172.313 0-312-139.687-312-312s139.687-312 312-312c112.781 0 211.587 59.841 266.396 149.504l-83.932 48.46c-7.652 4.417-10.274 14.203-5.856 21.856a16 16 0 0 0 7.55 6.704l196.542 84.303c8.121 3.483 17.528-0.276 21.012-8.397a16 16 0 0 0 1.183-4.418l25.263-212.362c1.044-8.775-5.223-16.734-13.998-17.778a16 16 0 0 0-9.89 2.031l-61.634 35.584C770.324 189.527 643.08 112 497.728 112c-220.914 0-400 179.086-400 400s179.086 400 400 400c160.91 0 299.628-95.013 363.113-231.996l-0.113-0.004z"></path>
</svg>