<?xml version="1.0" standalone="no"?><!DOCTYPE svg PUBLIC "-//W3C//DTD SVG 1.1//EN" "http://www.w3.org/Graphics/SVG/1.1/DTD/svg11.dtd">
<svg t="1725016409349" class="icon" viewBox="0 0 1024 1024" version="1.1"
  xmlns="http://www.w3.org/2000/svg"
  xmlns:xlink="http://www.w3.org/1999/xlink" width="200" height="200">
  <path d="M142.507 725.333a427.435 427.435 0 0 1-41.728-99.242 128 128 0 0 0 0.085-228.139 426.24 426.24 0 0 1 106.71-185.045A128 128 0 0 0 405.162 98.816a426.24 426.24 0 0 1 213.632 0.085 128 128 0 0 0 197.632 114.006 426.24 426.24 0 0 1 65.066 85.76c18.475 31.957 32.299 65.28 41.728 99.242a128 128 0 0 0-0.085 228.139 426.24 426.24 0 0 1-106.71 185.045 128 128 0 0 0-197.589 114.091 426.24 426.24 0 0 1-213.632-0.085 128 128 0 0 0-197.632-114.006 427.435 427.435 0 0 1-65.066-85.76zM384 733.696a213.035 213.035 0 0 1 96 118.187c21.29 2.005 42.667 2.048 63.957 0.042A213.035 213.035 0 0 1 640 733.74a213.035 213.035 0 0 1 150.4-24.107c12.373-17.408 23.04-35.968 31.915-55.381A213.035 213.035 0 0 1 768 512c0-53.76 20.053-103.979 54.315-142.25-8.96-19.414-19.627-37.974-32-55.382A213.035 213.035 0 0 1 640 290.304a213.035 213.035 0 0 1-96-118.187c-21.29-2.005-42.667-2.048-63.957-0.042A213.035 213.035 0 0 1 384 290.26a213.035 213.035 0 0 1-150.4 24.107 340.907 340.907 0 0 0-31.915 55.381A213.035 213.035 0 0 1 256 512a212.907 212.907 0 0 1-54.315 142.25c8.96 19.414 19.627 37.974 32 55.382A213.035 213.035 0 0 1 384 733.696zM512 640a128 128 0 1 1 0-256 128 128 0 0 1 0 256z m0-85.333a42.667 42.667 0 1 0 0-85.334 42.667 42.667 0 0 0 0 85.334z"></path>
</svg>