<?xml version="1.0" standalone="no"?><!DOCTYPE svg PUBLIC "-//W3C//DTD SVG 1.1//EN" "http://www.w3.org/Graphics/SVG/1.1/DTD/svg11.dtd">
<svg t="1725016412914" viewBox="0 0 1024 1024" version="1.1"
  xmlns="http://www.w3.org/2000/svg"
  xmlns:xlink="http://www.w3.org/1999/xlink" width="200" height="200">
  <path d="M424.704 94.293a426.24 426.24 0 0 1 174.55-0.085 170.368 170.368 0 0 0 83.413 122.112 170.368 170.368 0 0 0 147.498 11.136 426.24 426.24 0 0 1 87.168 151.253 170.368 170.368 0 0 0-64 133.291 170.24 170.24 0 0 0 64.086 133.29 428.501 428.501 0 0 1-87.296 151.169 170.368 170.368 0 0 0-147.456 11.136 170.368 170.368 0 0 0-83.371 122.026 426.24 426.24 0 0 1-174.55 0.171 170.368 170.368 0 0 0-83.413-122.24 170.368 170.368 0 0 0-147.498-11.093 426.24 426.24 0 0 1-87.168-151.296 170.368 170.368 0 0 0 64-133.206 170.368 170.368 0 0 0-64.086-133.29 428.501 428.501 0 0 1 87.296-151.168 170.368 170.368 0 0 0 147.456-11.136 170.368 170.368 0 0 0 83.371-122.027v-0.043zM512 640a128 128 0 1 0 0-256 128 128 0 0 0 0 256z"></path>
</svg>