<?xml version="1.0" standalone="no"?><!DOCTYPE svg PUBLIC "-//W3C//DTD SVG 1.1//EN" "http://www.w3.org/Graphics/SVG/1.1/DTD/svg11.dtd">
<svg t="1725016846950" class="icon" viewBox="0 0 1024 1024" version="1.1"
  xmlns="http://www.w3.org/2000/svg"
  xmlns:xlink="http://www.w3.org/1999/xlink" width="200" height="200">
  <path d="M559.787 726.315l-179.158-97.707a170.667 170.667 0 1 1 0-233.173l179.2-97.707a170.667 170.667 0 1 1 40.918 74.88l-179.2 97.707a171.008 171.008 0 0 1 0 83.37l179.157 97.707a170.667 170.667 0 1 1-40.917 74.88v0.043zM256 597.333a85.333 85.333 0 1 0 0-170.666 85.333 85.333 0 0 0 0 170.666z m469.333-256a85.333 85.333 0 1 0 0-170.666 85.333 85.333 0 0 0 0 170.666z m0 512a85.333 85.333 0 1 0 0-170.666 85.333 85.333 0 0 0 0 170.666z"></path>
</svg>