<?xml version="1.0" standalone="no"?><!DOCTYPE svg PUBLIC "-//W3C//DTD SVG 1.1//EN" "http://www.w3.org/Graphics/SVG/1.1/DTD/svg11.dtd">
<svg t="1725003299224" class="icon" viewBox="0 0 1024 1024" version="1.1"
  xmlns="http://www.w3.org/2000/svg"
  xmlns:xlink="http://www.w3.org/1999/xlink" width="200" height="200">
  <path d="M520.128 96c-13.312 0-26.432 3.776-37.76 10.752l-6.656 4.608a71.424 71.424 0 0 0-19.968 24.704l-92.288 186.88-206.08 30.08a71.04 71.04 0 0 0-36.032 16.256c-10.176 8.448-17.92 19.968-21.952 32.896a71.04 71.04 0 0 0-1.28 39.104l2.368 7.68c3.712 10.112 9.6 19.2 17.408 26.624l149.056 145.408-35.2 205.632a71.808 71.808 0 0 0 65.472 83.712l7.936 0.128c10.56-0.448 20.928-3.2 30.336-8.064l184.512-97.344 184.448 97.088a71.232 71.232 0 0 0 75.392-5.376 71.04 71.04 0 0 0 24.448-31.296l2.56-7.552a71.68 71.68 0 0 0 1.536-31.488l-35.2-205.44 149.248-145.664a71.68 71.68 0 0 0-3.776-105.984l-6.464-4.864a71.488 71.488 0 0 0-29.44-11.392l-206.144-30.016-92.096-187.008A71.808 71.808 0 0 0 520.128 96z m0 64a7.872 7.872 0 0 1 6.976 4.288l107.008 217.28 239.36 34.816c1.28 0.192 2.688 0.832 4.032 1.92a7.872 7.872 0 0 1 2.176 3.456 7.872 7.872 0 0 1-1.984 7.808l-173.184 169.088 40.832 238.72a8 8 0 0 1-0.512 4.352 7.104 7.104 0 0 1-2.368 3.072 8 8 0 0 1-4.096 1.6 7.36 7.36 0 0 1-3.968-0.768l-214.4-112.896-214.144 112.896a8.128 8.128 0 0 1-4.096 0.832 8 8 0 0 1-4.096-1.536 7.936 7.936 0 0 1-2.88-7.36l40.96-238.912-173.312-169.024a7.04 7.04 0 0 1-2.176-3.648 7.488 7.488 0 0 1 0.064-4.224 7.232 7.232 0 0 1 2.24-3.584 7.488 7.488 0 0 1 3.968-1.856l239.488-34.816 107.136-217.152a7.424 7.424 0 0 1 2.752-3.072 8.128 8.128 0 0 1 4.224-1.28z"></path>
</svg>