<?xml version="1.0" standalone="no"?><!DOCTYPE svg PUBLIC "-//W3C//DTD SVG 1.1//EN" "http://www.w3.org/Graphics/SVG/1.1/DTD/svg11.dtd"><svg t="1725003285812" class="icon" viewBox="0 0 1024 1024" version="1.1" xmlns="http://www.w3.org/2000/svg" p-id="55165" xmlns:xlink="http://www.w3.org/1999/xlink" width="200" height="200"><path d="M910.08 411.776a40.064 40.064 0 0 0-32-27.008l-222.72-32.448-99.584-202.176A39.36 39.36 0 0 0 520.128 128a40.128 40.128 0 0 0-35.712 22.144L384.768 352.256l-222.72 32.384a39.168 39.168 0 0 0-32.128 27.136 39.424 39.424 0 0 0 10.176 40.768l161.28 157.248-38.08 222.272a39.936 39.936 0 0 0 15.68 38.848 40 40 0 0 0 41.856 3.072l199.168-105.088 199.36 104.96a39.36 39.36 0 0 0 41.792-3.072 39.936 39.936 0 0 0 15.744-38.848l-38.016-222.08 161.216-157.44a40.064 40.064 0 0 0 10.048-40.64z" fill="#FDB100" p-id="55166"></path></svg>