<?xml version="1.0" standalone="no"?><!DOCTYPE svg PUBLIC "-//W3C//DTD SVG 1.1//EN" "http://www.w3.org/Graphics/SVG/1.1/DTD/svg11.dtd">
<svg width="200px" height="200.00px" viewBox="0 0 1024 1024" version="1.1"
  xmlns="http://www.w3.org/2000/svg">
  <path d="M298.667 426.667h554.666A42.667 42.667 0 0 1 896 469.333V896a42.667 42.667 0 0 1-42.667 42.667H170.667A42.667 42.667 0 0 1 128 896V469.333a42.667 42.667 0 0 1 42.667-42.666h42.666V384A298.667 298.667 0 0 1 779.18 250.41l-76.331 38.145A213.333 213.333 0 0 0 298.667 384v42.667z m128 213.333v85.333h170.666V640H426.667z" />
</svg>