<?xml version="1.0" standalone="no"?><!DOCTYPE svg PUBLIC "-//W3C//DTD SVG 1.1//EN" "http://www.w3.org/Graphics/SVG/1.1/DTD/svg11.dtd">
<svg t="1725015155312" class="icon" viewBox="0 0 1024 1024" version="1.1"
  xmlns="http://www.w3.org/2000/svg"
  xmlns:xlink="http://www.w3.org/1999/xlink" width="200" height="200">
  <path d="M512 227.555556c144.042667 0 276.366222 70.087111 397.027556 210.204444a113.777778 113.777778 0 0 1 6.087111 140.743111l-6.087111 7.736889-13.994667 15.815111C778.183111 731.648 650.524444 796.444444 512 796.444444c-144.042667 0-276.366222-70.087111-397.027556-210.204444a113.777778 113.777778 0 0 1-6.087111-140.743111l6.087111-7.736889 13.994667-15.815111C245.816889 292.352 373.475556 227.555556 512 227.555556z m0 85.333333c-107.690667 0-208.896 48.924444-305.777778 151.153778l-13.198222 14.279111-13.368889 15.132444a28.444444 28.444444 0 0 0 0 37.091556C285.070222 653.084444 394.808889 711.111111 512 711.111111c107.690667 0 208.896-48.924444 305.777778-151.153778l13.198222-14.279111 13.368889-15.132444a28.444444 28.444444 0 0 0 0-37.091556C738.929778 370.915556 629.191111 312.888889 512 312.888889zM512 398.222222a113.777778 113.777778 0 1 1 0 227.555556 113.777778 113.777778 0 0 1 0-227.555556z"></path>
</svg>